<svg version="1.1" xmlns="http://www.w3.org/2000/svg" xmlns:xlink="http://www.w3.org/1999/xlink" width="48" height="48"><defs><linearGradient x1="12.23187" y1="12.23434" x2="51.09897" y2="51.09648" gradientUnits="userSpaceOnUse" id="color-1"><stop offset="0.35" stop-color="#000000" stop-opacity="0.24"></stop><stop offset="1" stop-color="#000000" stop-opacity="0"></stop></linearGradient><filter id="dropshadow-base"><feColorMatrix type="matrix" values="0 0 0 0 0  0 0 0 0 0  0 0 0 0 0  0 0 0 .8 0"></feColorMatrix> <feOffset dx="0" dy="1"></feOffset> <feGaussianBlur stdDeviation="1"></feGaussianBlur> <feComposite in="SourceGraphic"></feComposite></filter><filter id="dropshadow-banner" x="-10%" y="-10%" width="120%" height="130%"><feColorMatrix type="matrix" values="0 0 0 0 0  0 0 0 0 0  0 0 0 0 0  0 0 0 .4 0"></feColorMatrix> <feOffset dx="0" dy="1"></feOffset> <feGaussianBlur stdDeviation="0.5"></feGaussianBlur> <feComposite in="SourceGraphic"></feComposite></filter></defs><g fill="none" fill-rule="nonzero" stroke="none" stroke-width="none" stroke-linecap="butt" stroke-linejoin="miter" stroke-miterlimit="10" stroke-dasharray="" stroke-dashoffset="0" font-family="none" font-weight="none" font-size="none" text-anchor="none" style="mix-blend-mode: normal"><path d="M7,43c-1.10457,0 -2,-0.89543 -2,-2v-34c0,-1.10457 0.89543,-2 2,-2h34c1.10457,0 2,0.89543 2,2v34c0,1.10457 -0.89543,2 -2,2z" id="base 1 5 1" fill="#0d62e0" stroke-width="1"></path><path d="M15.64688,32.31637c-4.54585,-4.54585 -4.56413,-11.88035 0.00991,-16.40879c4.58176,-4.54253 11.95439,-4.54253 16.53614,0l3.57521,-3.67325l7.23186,7.23186v21.53381c0,1.10457 -0.89543,2 -2,2l-14.66949,0z" fill="url(#color-1)" stroke-width="1"></path><path d="M35.76813,21.54817h-8.86938l3.58828,-3.68632c-3.56867,-3.53599 -9.34651,-3.66671 -12.91518,-0.13072c-3.56867,3.53599 -3.56867,9.26155 0,12.79753c3.56867,3.53599 9.34651,3.53599 12.91518,0c1.7778,-1.76473 2.6667,-3.8105 2.66016,-6.39877h2.62095c0,2.58827 -1.15034,5.94778 -3.45102,8.22885c-4.58829,4.54254 -12.03936,4.54254 -16.62764,0c-4.58829,-4.54254 -4.62097,-11.90864 -0.03268,-16.45117c4.58175,-4.54254 11.95439,-4.54254 16.53614,0l3.5752,-3.67325zM24.65689,18.77036v5.55562l4.57522,2.71899l-0.94119,1.58172l-5.59484,-3.3203v-6.53602z" fill="none" stroke-width="0"></path><path d="M35.76813,21.54817h-8.86938l3.58828,-3.68632c-3.56867,-3.53599 -9.34651,-3.66671 -12.91518,-0.13072c-3.56867,3.53599 -3.56867,9.26155 0,12.79753c3.56867,3.53599 9.34651,3.53599 12.91518,0c1.7778,-1.76473 2.6667,-3.8105 2.66016,-6.39877h2.62095c0,2.58827 -1.15034,5.94778 -3.45102,8.22885c-4.58829,4.54254 -12.03936,4.54254 -16.62764,0c-4.58829,-4.54254 -4.62097,-11.90864 -0.03268,-16.45117c4.58175,-4.54254 11.95439,-4.54254 16.53614,0l3.5752,-3.67325zM24.65689,18.77036v5.55562l4.57522,2.71899l-0.94119,1.58172l-5.59484,-3.3203v-6.53602z" fill="#f5f5f5" stroke-width="0"></path><path d="M2,24c0,-12.15026 9.84974,-22 22,-22c12.15026,0 22,9.84974 22,22c0,12.15026 -9.84974,22 -22,22c-12.15026,0 -22,-9.84974 -22,-22z" id="base 1 1 1" fill="none" stroke-width="1"></path><g fill="#000000" stroke-width="1" font-family="Roboto,sans-serif" font-weight="400" font-size="14" text-anchor="start"></g><rect x="2" y="2" width="44" height="22" fill="none" stroke-width="1"></rect><path d="M2,24v-22h44v22z" fill="none" stroke-width="1"></path><path d="M2,24v-22h44v22z" fill="none" stroke-width="1"></path><path d="M2,24v-22h44v22z" fill="none" stroke-width="1"></path><path d="M2,24v-22h44v22z" fill="none" stroke-width="1"></path></g></svg>